<svg xmlns="http://www.w3.org/2000/svg" version="1.1" xmlns:xlink="http://www.w3.org/1999/xlink" xmlns:svgjs="http://svgjs.com/svgjs" width="512" height="512" x="0" y="0" viewBox="0 0 512 512" style="enable-background:new 0 0 512 512" xml:space="preserve" class=""><g><linearGradient id="a"><stop offset="0" stop-color="#fdb4ba"></stop><stop offset="1" stop-color="#fe5694"></stop></linearGradient><linearGradient xlink:href="#a" id="k" x1="32.185" x2="143.581" y1="207.745" y2="267.635" gradientUnits="userSpaceOnUse"></linearGradient><linearGradient id="b"><stop offset="0" stop-color="#fd3581" stop-opacity="0"></stop><stop offset=".281" stop-color="#fa317d" stop-opacity=".282"></stop><stop offset=".56" stop-color="#f02571" stop-opacity=".56"></stop><stop offset=".838" stop-color="#df115e" stop-opacity=".838"></stop><stop offset="1" stop-color="#d2024e"></stop></linearGradient><linearGradient xlink:href="#b" id="l" x1="94.514" x2="102.898" y1="282.03" y2="321.558" gradientUnits="userSpaceOnUse"></linearGradient><linearGradient xlink:href="#a" id="m" x1="109.74" x2="155.256" y1="261.766" y2="306.085" gradientUnits="userSpaceOnUse"></linearGradient><linearGradient xlink:href="#b" id="n" x1="48.94" x2="139.973" y1="201.341" y2="291.309" gradientUnits="userSpaceOnUse"></linearGradient><linearGradient xlink:href="#a" id="o" x1="406.082" x2="482.741" y1="213.257" y2="292.312" gradientUnits="userSpaceOnUse"></linearGradient><linearGradient xlink:href="#b" id="p" x1="460.261" x2="400.636" y1="252.071" y2="233.971" gradientUnits="userSpaceOnUse"></linearGradient><linearGradient xlink:href="#b" id="q" x1="419.745" x2="412.558" y1="277.163" y2="325.076" gradientUnits="userSpaceOnUse"></linearGradient><linearGradient xlink:href="#a" id="r" x1="362.124" x2="398.058" y1="249.794" y2="291.717" gradientUnits="userSpaceOnUse"></linearGradient><linearGradient xlink:href="#b" id="s" x1="282.719" x2="398.773" y1="179.152" y2="290.947" gradientUnits="userSpaceOnUse"></linearGradient><linearGradient xlink:href="#a" id="t" x1="256" x2="256" y1="140.675" y2="280.865" gradientUnits="userSpaceOnUse"></linearGradient><linearGradient id="c"><stop offset="0" stop-color="#f1b0a2"></stop><stop offset="1" stop-color="#ca6e59"></stop></linearGradient><linearGradient xlink:href="#c" id="u" x1="18.66" x2="40.706" y1="320.08" y2="320.08" gradientTransform="rotate(-5.13 215.369 334.477)" gradientUnits="userSpaceOnUse"></linearGradient><linearGradient xlink:href="#c" id="v" x1="465.678" x2="494.502" y1="334.647" y2="337.529" gradientUnits="userSpaceOnUse"></linearGradient><linearGradient id="d"><stop offset="0" stop-color="#eaf9fa"></stop><stop offset="1" stop-color="#b4d2e2"></stop></linearGradient><linearGradient xlink:href="#d" id="w" x1="295.979" x2="318.343" y1="325.405" y2="347.77" gradientTransform="rotate(45 307.18 336.491)" gradientUnits="userSpaceOnUse"></linearGradient><linearGradient id="e"><stop offset="0" stop-color="#c8effe"></stop><stop offset="1" stop-color="#62dbfb"></stop></linearGradient><linearGradient xlink:href="#e" id="x" x1="174.859" x2="193.603" y1="454.109" y2="472.853" gradientUnits="userSpaceOnUse"></linearGradient><linearGradient id="y" x1="71.911" x2="100.613" y1="354.886" y2="383.588" gradientUnits="userSpaceOnUse"><stop offset="0" stop-color="#fd4755"></stop><stop offset="1" stop-color="#a72b2b"></stop></linearGradient><linearGradient xlink:href="#e" id="z" x1="413.383" x2="440.264" y1="454.085" y2="480.966" gradientUnits="userSpaceOnUse"></linearGradient><linearGradient id="f"><stop offset="0" stop-color="#fef0ae"></stop><stop offset="1" stop-color="#fac600"></stop></linearGradient><linearGradient xlink:href="#f" id="A" x1="241.918" x2="268.8" y1="57.75" y2="84.632" gradientUnits="userSpaceOnUse"></linearGradient><linearGradient xlink:href="#e" id="B" x1="24.419" x2="80.605" y1="65.891" y2="65.891" gradientUnits="userSpaceOnUse"></linearGradient><linearGradient id="g"><stop offset="0" stop-color="#07b2cd" stop-opacity="0"></stop><stop offset=".455" stop-color="#05a5ce" stop-opacity=".455"></stop><stop offset="1" stop-color="#0290cf"></stop></linearGradient><linearGradient xlink:href="#g" id="C" x1="47.879" x2="66.532" y1="115.689" y2="97.497" gradientUnits="userSpaceOnUse"></linearGradient><linearGradient xlink:href="#g" id="D" x1="61.847" x2="61.847" y1="122.859" y2="131.162" gradientUnits="userSpaceOnUse"></linearGradient><linearGradient xlink:href="#g" id="E" x1="61.847" x2="61.847" y1="118.714" y2="129.347" gradientUnits="userSpaceOnUse"></linearGradient><linearGradient xlink:href="#g" id="F" x1="54.062" x2="36.56" y1="12.775" y2="42.252" gradientUnits="userSpaceOnUse"></linearGradient><linearGradient id="h"><stop offset="0" stop-color="#8bc727"></stop><stop offset=".132" stop-color="#83c528"></stop><stop offset=".343" stop-color="#6bbd2b"></stop><stop offset=".607" stop-color="#45b131"></stop><stop offset=".911" stop-color="#11a038"></stop><stop offset="1" stop-color="#009b3a"></stop></linearGradient><linearGradient xlink:href="#h" id="G" x1="-408.306" x2="-335.609" y1="-714.211" y2="-714.211" gradientTransform="rotate(-45 971.69 -1281.805)" gradientUnits="userSpaceOnUse"></linearGradient><linearGradient id="i"><stop offset="0" stop-color="#026841" stop-opacity="0"></stop><stop offset=".238" stop-color="#026441" stop-opacity=".238"></stop><stop offset=".474" stop-color="#015840" stop-opacity=".475"></stop><stop offset=".711" stop-color="#01443f" stop-opacity=".711"></stop><stop offset=".946" stop-color="#00283d" stop-opacity=".946"></stop><stop offset="1" stop-color="#00213d"></stop></linearGradient><linearGradient xlink:href="#i" id="H" x1="-377.952" x2="-353.817" y1="-649.778" y2="-673.318" gradientTransform="rotate(-45 971.69 -1281.805)" gradientUnits="userSpaceOnUse"></linearGradient><linearGradient xlink:href="#i" id="I" x1="-359.879" x2="-359.879" y1="-640.502" y2="-629.759" gradientTransform="rotate(-45 971.69 -1281.805)" gradientUnits="userSpaceOnUse"></linearGradient><linearGradient xlink:href="#i" id="J" x1="-359.879" x2="-359.879" y1="-645.865" y2="-632.107" gradientTransform="rotate(-45 971.69 -1281.805)" gradientUnits="userSpaceOnUse"></linearGradient><linearGradient xlink:href="#i" id="K" x1="-369.952" x2="-392.597" y1="-782.936" y2="-744.796" gradientTransform="rotate(-45 971.69 -1281.805)" gradientUnits="userSpaceOnUse"></linearGradient><linearGradient xlink:href="#f" id="L" x1="-681.471" x2="-700.103" y1="-578.284" y2="-544.002" gradientTransform="rotate(-45 899.105 -1103.79)" gradientUnits="userSpaceOnUse"></linearGradient><linearGradient id="j"><stop offset="0" stop-color="#fea613" stop-opacity="0"></stop><stop offset=".203" stop-color="#fda215" stop-opacity=".203"></stop><stop offset=".405" stop-color="#fb961b" stop-opacity=".405"></stop><stop offset=".607" stop-color="#f68225" stop-opacity=".607"></stop><stop offset=".807" stop-color="#f06633" stop-opacity=".807"></stop><stop offset="1" stop-color="#e94444"></stop></linearGradient><linearGradient xlink:href="#j" id="M" x1="-656.057" x2="-695.183" y1="-562.33" y2="-547.425" gradientTransform="rotate(-45 899.105 -1103.79)" gradientUnits="userSpaceOnUse"></linearGradient><linearGradient xlink:href="#f" id="N" x1="-533.062" x2="-533.062" y1="-618.403" y2="-580.954" gradientTransform="rotate(-45 899.105 -1103.79)" gradientUnits="userSpaceOnUse"></linearGradient><linearGradient xlink:href="#j" id="O" x1="731.563" x2="692.437" y1="-4051.328" y2="-4036.423" gradientTransform="rotate(90 -1688.422 -2120.386)" gradientUnits="userSpaceOnUse"></linearGradient><linearGradient xlink:href="#h" id="P" x1="1230.888" x2="1230.888" y1="-2502.564" y2="-2465.115" gradientTransform="rotate(45 -2715.347 -2093.665)" gradientUnits="userSpaceOnUse"></linearGradient><linearGradient xlink:href="#i" id="Q" x1="-1848.04" x2="-1887.166" y1="-3966.326" y2="-3951.421" gradientTransform="rotate(180 -765.798 -1773.16)" gradientUnits="userSpaceOnUse"></linearGradient><linearGradient xlink:href="#d" id="R" x1="132.12" x2="132.12" y1="175.746" y2="223.912" gradientUnits="userSpaceOnUse"></linearGradient><linearGradient xlink:href="#d" id="S" x1="190.002" x2="190.002" y1="175.746" y2="223.912" gradientUnits="userSpaceOnUse"></linearGradient><linearGradient xlink:href="#d" id="T" x1="253.86" x2="253.86" y1="175.746" y2="223.912" gradientUnits="userSpaceOnUse"></linearGradient><linearGradient xlink:href="#d" id="U" x1="314.531" x2="314.531" y1="175.746" y2="223.912" gradientUnits="userSpaceOnUse"></linearGradient><linearGradient xlink:href="#d" id="V" x1="378.433" x2="378.433" y1="175.746" y2="223.912" gradientUnits="userSpaceOnUse"></linearGradient><path fill="url(#k)" d="M32.743 308.001 13.742 198.505c-4.986-8.334-.28-19.074 9.216-21.11 41.82-8.965 83.916-15.501 126.143-19.589v120.897c0 18.556-13.818 34.178-32.227 36.507a1113.316 1113.316 0 0 0-67.928 10.738c-10.429 1.981-19.25-7.778-16.203-17.947z" data-original="url(#k)"></path><path fill="url(#l)" d="M149.102 213.746v64.959c0 18.55-13.823 34.177-32.227 36.507a1108.754 1108.754 0 0 0-67.927 10.742c-10.429 1.972-19.256-7.785-16.209-17.956l-16.354-94.252z" data-original="url(#l)"></path><path fill="url(#m)" d="m124.059 283.554-20.922-20.86 10.313-9.549h35.65v25.569c0 18.535-13.785 34.177-32.172 36.507l-.445.056c13.581-4.425 17.691-21.637 7.576-31.723z" data-original="url(#m)"></path><path fill="url(#n)" d="m124.059 283.554-20.922-20.86 10.313-9.549h35.65v25.569c0 18.535-13.785 34.177-32.172 36.507l-.445.056c13.581-4.425 17.691-21.637 7.576-31.723z" data-original="url(#n)"></path><path fill="url(#o)" d="m479.257 308.001 19.001-109.496c4.986-8.334.28-19.074-9.216-21.11-41.82-8.965-83.916-15.501-126.143-19.589v120.897c0 18.556 13.818 34.178 32.227 36.507a1113.316 1113.316 0 0 1 67.928 10.738c10.429 1.981 19.25-7.778 16.203-17.947z" data-original="url(#o)"></path><path fill="url(#p)" d="m479.257 308.001 19.001-109.496c4.986-8.334.28-19.074-9.216-21.11-41.82-8.965-83.916-15.501-126.143-19.589v120.897c0 18.556 13.818 34.178 32.227 36.507a1113.316 1113.316 0 0 1 67.928 10.738c10.429 1.981 19.25-7.778 16.203-17.947z" data-original="url(#p)"></path><path fill="url(#q)" d="M479.262 307.997c3.047 10.171-5.78 19.928-16.209 17.956a1108.228 1108.228 0 0 0-67.927-10.742c-18.404-2.33-32.227-17.956-32.227-36.507v-64.959h132.718z" data-original="url(#q)"></path><path fill="url(#r)" d="m387.941 283.554 20.922-20.86-10.313-9.549H362.9v25.569c0 18.535 13.785 34.177 32.172 36.507l.445.056c-13.581-4.425-17.691-21.637-7.576-31.723z" data-original="url(#r)"></path><path fill="url(#s)" d="m387.941 283.554 20.922-20.86-10.313-9.549H362.9v25.569c0 18.535 13.785 34.177 32.172 36.507l.445.056c-13.581-4.425-17.691-21.637-7.576-31.723z" data-original="url(#s)"></path><path fill="url(#t)" d="M97.179 252.821 80.605 142.199c-1.443-9.63 4.887-18.701 14.417-20.701 106.479-22.344 215.478-22.344 321.957 0 9.53 2 15.86 11.071 14.417 20.701l-16.575 110.623c-1.307 8.726-9.639 14.589-18.294 12.874-93.06-18.435-187.992-18.435-281.053-.001-8.656 1.715-16.987-4.147-18.295-12.874z" data-original="url(#t)"></path><path fill="url(#u)" d="M44.995 510.744c-8.722.763-16.411-5.689-17.174-14.411L.061 179.042c-.763-8.722 5.689-16.411 14.411-17.174 8.722-.763 16.411 5.689 17.174 14.411l27.759 317.29c.764 8.722-5.688 16.411-14.41 17.175z" data-original="url(#u)"></path><path fill="url(#v)" d="M467.005 510.744c8.722.763 16.411-5.689 17.174-14.411l27.759-317.29c.763-8.722-5.689-16.411-14.411-17.174-8.722-.763-16.411 5.689-17.174 14.411l-27.759 317.29c-.763 8.721 5.689 16.41 14.411 17.174z" data-original="url(#v)"></path><path fill="url(#w)" d="M305.783 359.567a50 50 0 0 0-23.963-22.901c-1.148-.518-1.148-2.161 0-2.679a50.014 50.014 0 0 0 23.963-22.901c.546-1.075 2.078-1.075 2.625 0a50 50 0 0 0 23.963 22.901c1.148.518 1.148 2.161 0 2.679a50.014 50.014 0 0 0-23.963 22.901c-.547 1.076-2.079 1.076-2.625 0z" data-original="url(#w)"></path><path fill="url(#x)" d="M200.786 481.892a50.01 50.01 0 0 0-33.138.751c-1.178.445-2.34-.716-1.894-1.894a50.01 50.01 0 0 0 .751-33.138c-.374-1.147.709-2.23 1.856-1.856a50.003 50.003 0 0 0 33.138-.751c1.178-.445 2.34.716 1.894 1.894a50.01 50.01 0 0 0-.751 33.138c.374 1.146-.71 2.23-1.856 1.856z" data-original="url(#x)"></path><path fill="url(#y)" d="M80.101 388.628a50 50 0 0 0-23.963-22.901c-1.148-.518-1.148-2.161 0-2.679a50.014 50.014 0 0 0 23.963-22.901c.546-1.075 2.078-1.075 2.625 0a50 50 0 0 0 23.963 22.901c1.148.518 1.148 2.161 0 2.679a50.014 50.014 0 0 0-23.963 22.901c-.547 1.075-2.079 1.075-2.625 0z" data-original="url(#y)"></path><path fill="url(#z)" d="M447.362 465.135a50 50 0 0 0-22.901 23.963c-.518 1.148-2.161 1.148-2.679 0a50.014 50.014 0 0 0-22.901-23.963c-1.075-.546-1.075-2.078 0-2.625a50 50 0 0 0 22.901-23.963c.518-1.148 2.161-1.148 2.679 0a50.014 50.014 0 0 0 22.901 23.963c1.075.547 1.075 2.079 0 2.625z" data-original="url(#z)"></path><path fill="url(#A)" d="M275.897 68.801a50 50 0 0 0-22.901 23.963c-.518 1.148-2.161 1.148-2.679 0a50.014 50.014 0 0 0-22.901-23.963c-1.075-.546-1.075-2.078 0-2.625a50 50 0 0 0 22.901-23.963c.518-1.148 2.161-1.148 2.679 0a50.014 50.014 0 0 0 22.901 23.963c1.076.546 1.076 2.079 0 2.625z" data-original="url(#A)"></path><path fill="url(#B)" d="M75.755 130.587H58.803a4.849 4.849 0 0 1-4.849-4.849v-23.159c0-9.908-3.858-19.223-10.864-26.229-12.04-12.04-18.671-28.047-18.671-45.074V6.044a4.849 4.849 0 0 1 4.849-4.849H46.22a4.849 4.849 0 0 1 4.849 4.849v25.232c0 9.908 3.858 19.223 10.864 26.228 12.04 12.04 18.67 28.048 18.67 45.074v23.159a4.847 4.847 0 0 1-4.848 4.85z" data-original="url(#B)"></path><path fill="url(#C)" d="M43.089 76.35c7.006 7.006 10.864 16.321 10.864 26.229v23.159a4.849 4.849 0 0 0 4.849 4.849h16.953a4.849 4.849 0 0 0 4.849-4.849c0-7.602-3.02-14.892-8.395-20.267z" data-original="url(#C)"></path><path fill="url(#D)" d="M43.089 76.35c7.006 7.006 10.864 16.321 10.864 26.229v23.159a4.849 4.849 0 0 0 4.849 4.849h16.953a4.849 4.849 0 0 0 4.849-4.849c0-7.602-3.02-14.892-8.395-20.267z" data-original="url(#D)"></path><path fill="url(#E)" d="M80.605 125.738c0-7.602-3.02-14.892-8.395-20.267L43.089 76.35" data-original="url(#E)"></path><path fill="url(#F)" d="M61.934 57.504c-7.006-7.005-10.864-16.32-10.864-26.228V6.044a4.849 4.849 0 0 0-4.849-4.849H29.268a4.849 4.849 0 0 0-4.849 4.849v4.151a23.644 23.644 0 0 0 6.925 16.719z" data-original="url(#F)"></path><path fill="url(#G)" d="m503.36 107.331-15.51 15.51a6.275 6.275 0 0 1-8.873 0l-21.188-21.188c-9.065-9.065-21.117-14.057-33.936-14.057-22.031 0-42.742-8.579-58.32-24.157l-23.084-23.084a6.275 6.275 0 0 1 0-8.873l15.51-15.51a6.275 6.275 0 0 1 8.873 0l23.084 23.084c9.065 9.065 21.117 14.057 33.936 14.057 22.031 0 42.742 8.579 58.32 24.157l21.188 21.188a6.273 6.273 0 0 1 0 8.873z" data-original="url(#G)"></path><path fill="url(#H)" d="M423.852 87.596c12.82 0 24.872 4.992 33.936 14.057l21.188 21.188a6.275 6.275 0 0 0 8.873 0l15.51-15.51a6.275 6.275 0 0 0 0-8.873 37.084 37.084 0 0 0-26.223-10.862z" data-original="url(#H)"></path><path fill="url(#I)" d="M423.852 87.596c12.82 0 24.872 4.992 33.936 14.057l21.188 21.188a6.275 6.275 0 0 0 8.873 0l15.51-15.51a6.275 6.275 0 0 0 0-8.873 37.084 37.084 0 0 0-26.223-10.862z" data-original="url(#I)"></path><path fill="url(#J)" d="M503.36 98.458a37.084 37.084 0 0 0-26.223-10.862h-53.285" data-original="url(#J)"></path><path fill="url(#K)" d="M423.852 53.113c-12.819 0-24.872-4.992-33.936-14.057l-23.084-23.084a6.275 6.275 0 0 0-8.873 0l-15.51 15.51a6.275 6.275 0 0 0 0 8.873l3.797 3.797a30.592 30.592 0 0 0 21.632 8.96z" data-original="url(#K)"></path><path fill="url(#L)" d="m144.259 387.543-7.246-7.246a6.52 6.52 0 0 0-9.222 0l-16.073 16.073a6.52 6.52 0 0 0 0 9.222l6.324 6.324c21.901 21.901 57.409 21.901 79.31 0l6.324-6.324a6.52 6.52 0 0 0 0-9.222l-16.073-16.073a6.52 6.52 0 0 0-9.222 0l-7.246 7.246c-7.422 7.422-19.454 7.422-26.876 0z" data-original="url(#L)"></path><path fill="url(#M)" d="m197.352 411.916 6.324-6.324a6.52 6.52 0 0 0 0-9.222l-16.073-16.073a6.52 6.52 0 0 0-9.222 0l-7.246 7.246c-7.422 7.422-19.454 7.422-26.876 0l24.296 24.296c7.884 7.884 20.731 8.083 28.645.228l.152-.151z" data-original="url(#M)"></path><path fill="url(#N)" d="M263.039 266.338h10.247a6.522 6.522 0 0 0 6.521-6.521v-22.73a6.522 6.522 0 0 0-6.521-6.521h-8.943c-30.972 0-56.081 25.108-56.081 56.081v8.943a6.522 6.522 0 0 0 6.521 6.521h22.73a6.522 6.522 0 0 0 6.521-6.521v-10.247c0-10.497 8.509-19.005 19.005-19.005z" data-original="url(#N)"></path><path fill="url(#O)" d="M208.262 286.646v8.943a6.522 6.522 0 0 0 6.521 6.521h22.73a6.522 6.522 0 0 0 6.521-6.521v-10.247c0-10.496 8.508-19.004 19.004-19.004h-34.36c-11.15 0-20.374 8.944-20.417 20.093l.001.215z" data-original="url(#O)"></path><path fill="url(#P)" d="M349.705 440.525v10.247a6.522 6.522 0 0 0 6.521 6.521h22.73a6.522 6.522 0 0 0 6.521-6.521v-8.943c0-30.972-25.108-56.081-56.081-56.081h-8.943a6.522 6.522 0 0 0-6.521 6.521V415a6.522 6.522 0 0 0 6.521 6.521H330.7c10.496 0 19.005 8.509 19.005 19.004z" data-original="url(#P)"></path><path fill="url(#Q)" d="M329.396 385.749h-8.943a6.522 6.522 0 0 0-6.521 6.521V415a6.522 6.522 0 0 0 6.521 6.521H330.7c10.496 0 19.004 8.508 19.004 19.004v-34.36c0-11.15-8.944-20.374-20.093-20.417l-.215.001z" data-original="url(#Q)"></path><path fill="url(#R)" d="M123.628 176.856a1590.5 1590.5 0 0 1 16.167-1.059c1.652-.101 2.951.472 3.889 1.716.938 1.245 1.455 2.71 1.554 4.392.082 1.402-.231 2.81-.936 4.221-.706 1.413-1.951 2.173-3.734 2.282-6.425.393-9.637.604-16.06 1.052l1.246 17.857a1561.489 1561.489 0 0 1 28.426-1.767c1.626-.089 2.905.566 3.827 1.956.923 1.392 1.434 3.071 1.536 5.034a10.375 10.375 0 0 1-.911 4.844c-.695 1.549-1.918 2.368-3.672 2.464a2858.752 2858.752 0 0 0-37.467 2.423c-1.824.136-3.502-.157-5.041-.883s-2.376-1.927-2.508-3.606l-5.246-66.655c-.132-1.68.534-3 2.001-3.958 1.467-.959 3.151-1.51 5.051-1.652a1926.992 1926.992 0 0 1 39.02-2.523c1.826-.1 3.183.585 4.066 2.05a10.032 10.032 0 0 1 1.453 4.721c.102 1.963-.247 3.687-1.043 5.168-.797 1.483-2.029 2.268-3.697 2.359-11.668.636-17.501.998-29.16 1.812l1.239 17.752z" data-original="url(#R)"></path><path fill="url(#S)" d="M158.517 150.494c-.175-.552-.267-.935-.278-1.145-.05-.98.25-1.892.903-2.733.653-.84 1.513-1.587 2.579-2.237a16.55 16.55 0 0 1 3.494-1.59c1.262-.41 2.48-.643 3.65-.696 1.388-.063 2.589.114 3.595.527s1.715 1.175 2.128 2.279c5.857 17.757 11.603 35.552 17.186 53.398 4.33-18.18 8.774-36.333 13.382-54.445.334-1.131.991-1.938 1.967-2.42.976-.481 2.159-.739 3.55-.772 1.169-.027 2.4.121 3.688.444 1.286.323 2.486.773 3.594 1.347s2.018 1.261 2.726 2.055c.707.793 1.071 1.683 1.088 2.665.004.211-.064.599-.199 1.162a4083.825 4083.825 0 0 0-18.505 64.674c-.513 1.841-1.792 3.247-3.836 4.221-2.046.974-4.295 1.504-6.751 1.588-2.459.084-4.74-.291-6.846-1.123-2.108-.832-3.481-2.147-4.117-3.949a4065.41 4065.41 0 0 0-22.998-63.25z" data-original="url(#S)"></path><path fill="url(#T)" d="M245.319 172.272c6.477-.036 9.716-.041 16.193-.022 1.655.005 2.913.66 3.769 1.962.856 1.303 1.278 2.797 1.269 4.482-.008 1.405-.41 2.789-1.204 4.152-.795 1.365-2.085 2.043-3.871 2.038-6.434-.019-9.652-.014-16.086.022l.101 17.9c11.387-.064 17.081-.053 28.467.057 1.628.016 2.861.751 3.693 2.197.832 1.448 1.234 3.157 1.21 5.121a10.373 10.373 0 0 1-1.219 4.776c-.792 1.502-2.065 2.241-3.821 2.224-12.513-.076-25.013-.07-37.526.019-1.828.019-3.483-.381-4.971-1.204s-2.246-2.075-2.27-3.759c-.324-22.285-.646-44.569-.968-66.854-.024-1.685.724-2.959 2.249-3.822 1.525-.864 3.239-1.306 5.142-1.326 13.027-.138 26.055-.145 39.081-.02 1.828.018 3.14.789 3.925 2.306a10.029 10.029 0 0 1 1.147 4.804c-.024 1.966-.482 3.664-1.371 5.091-.89 1.429-2.169 2.134-3.839 2.118a1597.075 1597.075 0 0 0-29.203-.058c.043 7.119.063 10.678.103 17.796z" data-original="url(#T)"></path><path fill="url(#U)" d="M331.569 218.636c-1.896-.077-3.641-.425-5.236-1.049-1.595-.623-2.852-1.862-3.772-3.722a2195.75 2195.75 0 0 0-19.159-37.03l-.894 35.789c-.042 1.684-.937 2.924-2.679 3.726-1.742.801-3.631 1.18-5.668 1.138-2.039-.042-3.909-.498-5.617-1.371s-2.55-2.15-2.523-3.833l1.078-66.852c.028-1.754.943-3.022 2.749-3.798 1.806-.775 3.771-1.143 5.894-1.099 1.537.031 2.853.131 3.946.296a8.494 8.494 0 0 1 3.049 1.072c.937.549 1.832 1.397 2.679 2.542s1.755 2.679 2.725 4.601a3477.505 3477.505 0 0 1 16.522 33.076l1.299-35.777c.064-1.752 1.003-2.984 2.824-3.689 1.818-.704 3.792-1.014 5.913-.927s4.063.556 5.819 1.405c1.755.849 2.594 2.154 2.515 3.906l-3.022 66.9c-.076 1.683-.996 2.906-2.753 3.672-1.756.766-3.652 1.106-5.689 1.024z" data-original="url(#U)"></path><path fill="url(#V)" d="M402.565 145.69c1.825.139 3.082 1.013 3.763 2.613.682 1.602.954 3.28.816 5.029-.16 2.03-.735 3.744-1.72 5.146s-2.311 2.038-3.977 1.911c-6.001-.456-9.001-.673-15.004-1.082l-3.886 57.043c-.114 1.68-1.062 2.882-2.838 3.608s-3.68 1.023-5.714.893c-2.036-.13-3.886-.666-5.555-1.611-1.671-.946-2.456-2.257-2.356-3.938l3.38-57.075a1569.62 1569.62 0 0 0-15.017-.83c-1.669-.086-2.9-.886-3.699-2.4-.799-1.515-1.151-3.289-1.052-5.323a10.546 10.546 0 0 1 1.446-4.885c.879-1.501 2.235-2.209 4.062-2.115 15.795.863 31.572 1.868 47.351 3.016z" data-original="url(#V)"></path></g></svg>