<svg xmlns="http://www.w3.org/2000/svg" version="1.1" xmlns:xlink="http://www.w3.org/1999/xlink" xmlns:svgjs="http://svgjs.com/svgjs" width="512" height="512" x="0" y="0" viewBox="0 0 512 512" style="enable-background:new 0 0 512 512" xml:space="preserve" class=""><g><path fill="#3f6e90" d="M23.179 463.03V77.992c0-17.069 13.837-30.905 30.905-30.905h403.831c17.069 0 30.905 13.837 30.905 30.905V463.03z" data-original="#3f6e90"></path><path fill="#355f7f" d="M457.915 47.087H427.01c17.069 0 30.905 13.837 30.905 30.905V463.03h30.905V77.992c.001-17.068-13.836-30.905-30.905-30.905z" data-original="#355f7f"></path><path fill="#d8ecfe" d="M54.085 236.808v241.67h403.831V85.206a7.205 7.205 0 0 0-7.211-7.211H61.296a7.205 7.205 0 0 0-7.211 7.211v72.782z" data-original="#d8ecfe"></path><path fill="#aee49e" d="M265.279 356.438v-34.864H246.72v34.864a16.634 16.634 0 0 1-13.19 16.273l-21.386 1.255-30.183 6.386c-23.067 4.881-39.571 25.241-39.571 48.819v55.411h227.219v-55.411c0-23.578-16.503-43.939-39.571-48.819l-30.183-6.386-21.386-1.255a16.634 16.634 0 0 1-13.19-16.273z" data-original="#aee49e"></path><path fill="#8bd8a5" d="m280.003 391.758 19.13 4.047c23.067 4.881 39.571 25.241 39.571 48.819v39.959h30.905v-55.411c0-23.578-16.503-43.939-39.571-48.819l-30.183-6.386z" data-original="#8bd8a5"></path><path fill="#ffcebf" d="M212.144 373.967c9.401 14.225 25.529 23.615 43.856 23.615s34.455-9.39 43.856-23.615l-21.386-1.256a16.634 16.634 0 0 1-13.19-16.273v-34.864h-34.011v34.864a16.634 16.634 0 0 1-13.19 16.273z" data-original="#ffcebf"></path><path fill="#ffb09e" d="M280.732 356.438v-34.864h-30.905v50.317a16.634 16.634 0 0 0 13.19 16.273l16.987 3.594a52.786 52.786 0 0 0 19.852-17.791l-5.934-1.256a16.576 16.576 0 0 1-10.309-6.916 16.596 16.596 0 0 1-2.881-9.357z" data-original="#ffb09e"></path><path fill="#e19974" d="M319.193 267.551H192.806v-76.137c0-13.78 11.171-24.95 24.95-24.95h76.487c13.78 0 24.95 11.171 24.95 24.95z" data-original="#e19974"></path><path fill="#dc8758" d="M294.243 166.463h-30.905c13.779 0 24.95 11.171 24.95 24.95v76.137h30.905v-76.137c0-13.779-11.171-24.95-24.95-24.95z" data-original="#dc8758"></path><path fill="#ffcebf" d="M319.193 245.6a66.263 66.263 0 0 1-23.284-12.132 66.637 66.637 0 0 1-15.803-18.525 2.855 2.855 0 0 0-4.358-.731 125.91 125.91 0 0 1-22.665 15.844c-24.002 13.101-46.904 15.36-60.277 15.544v40.495c0 26.256 15.852 48.792 38.462 58.465 7.596 3.25 15.956 1.279 24.732 1.279 0 0 17.037 1.992 24.597-1.222 22.681-9.642 38.596-32.214 38.596-58.522z" data-original="#ffcebf"></path><path fill="#ffb09e" d="M295.909 233.468a66.635 66.635 0 0 1-15.818-18.552c-.899-1.561-2.987-1.893-4.342-.706a126.644 126.644 0 0 1-17.568 12.888 66.038 66.038 0 0 0 6.822 6.369 66.164 66.164 0 0 0 16.817 9.898 10.314 10.314 0 0 1 6.467 9.559v33.17c.185 4.181.563 23.089-13.584 39.342-16.669 19.149-40.067 19.177-43.435 19.123a63.357 63.357 0 0 0 15.672 4.396c3.301.479 6.347.652 9.059.652 34.901 0 63.193-28.436 63.193-63.513V245.6a66.252 66.252 0 0 1-23.283-12.132z" data-original="#ffb09e"></path><path fill="#3f6e90" d="M225.51 284.045a7.726 7.726 0 0 1-7.726-7.726v-12.258a7.726 7.726 0 1 1 15.452 0v12.258a7.725 7.725 0 0 1-7.726 7.726zM286.488 284.045a7.726 7.726 0 0 1-7.726-7.726v-12.258a7.726 7.726 0 1 1 15.452 0v12.258a7.724 7.724 0 0 1-7.726 7.726z" data-original="#3f6e90"></path><path fill="#ffb09e" d="M255.653 329.31a33.1 33.1 0 0 1-15.581-4.105 7.726 7.726 0 1 1 7.462-13.531 17.606 17.606 0 0 0 8.282 2.183c3.763.053 6.802-1.165 8.649-2.184a7.726 7.726 0 1 1 7.459 13.533c-3.402 1.877-9.383 4.178-16.271 4.104z" data-original="#ffb09e"></path><path fill="#ffcebf" d="M326.917 275.582h-7.724V245.6h7.724c8.258 0 14.953 6.695 14.953 14.953v.076c0 8.258-6.695 14.953-14.953 14.953z" data-original="#ffcebf"></path><path fill="#ffb09e" d="M185.082 275.582h7.724V245.6h-7.724c-8.258 0-14.953 6.695-14.953 14.953v.076c-.001 8.258 6.694 14.953 14.953 14.953z" data-original="#ffb09e"></path><path fill="#355f7f" d="M301.32 445.038v13.988c0 5.69-4.612 10.302-10.302 10.302h-70.037c-5.69 0-10.302-4.612-10.302-10.302v-13.988c0-5.69-4.612-10.302-10.302-10.302H10.302C4.612 434.736 0 439.349 0 445.038v36.056C0 498.163 13.837 512 30.905 512h450.189C498.163 512 512 498.163 512 481.095v-36.056c0-5.69-4.612-10.302-10.302-10.302H311.622c-5.689-.001-10.302 4.612-10.302 10.301z" data-original="#355f7f"></path><path fill="#305972" d="M501.698 434.736h-30.905c5.69 0 10.302 4.612 10.302 10.302v36.056c0 17.068-13.837 30.905-30.905 30.905h30.905C498.163 512 512 498.163 512 481.095v-36.056c0-5.69-4.612-10.303-10.302-10.303z" data-original="#305972"></path><path fill="#f58a97" d="M354.615 131.645h-197.23c-18.144 0-32.853-14.709-32.853-32.853v-65.94C124.532 14.709 139.241 0 157.385 0h197.231c18.144 0 32.853 14.709 32.853 32.853v65.94c-.001 18.143-14.71 32.852-32.854 32.852z" data-original="#f58a97"></path><path fill="#f07281" d="M354.615 0H323.71c18.144 0 32.853 14.709 32.853 32.853v65.94c0 18.144-14.709 32.853-32.853 32.853h30.905c18.144 0 32.853-14.709 32.853-32.853v-65.94C387.468 14.709 372.759 0 354.615 0z" data-original="#f07281"></path><g fill="#fff"><path d="M181.688 93.393h-.044c-5.908.033-12.262.056-16.992.059V30.466a7.726 7.726 0 1 0-15.452 0v70.654a7.727 7.727 0 0 0 6.422 7.616c.547.094 18.099.155 26.109.111a7.727 7.727 0 0 0-.043-15.454zM212.881 22.739a7.726 7.726 0 0 0-7.726 7.726v70.713a7.726 7.726 0 1 0 15.452 0V30.466a7.726 7.726 0 0 0-7.726-7.727zM355.074 93.453h-21.797V73.871h19.621a7.726 7.726 0 1 0 0-15.452h-19.621V38.837h21.797a7.726 7.726 0 1 0 0-15.452H325.55a7.726 7.726 0 0 0-7.726 7.726v70.068a7.725 7.725 0 0 0 7.726 7.726h29.524a7.726 7.726 0 0 0 7.726-7.726 7.724 7.724 0 0 0-7.726-7.726zM296.793 23.264a7.722 7.722 0 0 0-9.769 4.896l-17.395 52.362-18.255-52.59a7.727 7.727 0 0 0-14.599 5.066l24.196 69.705a9.328 9.328 0 0 0 8.784 6.201c3.988 0 7.544-2.547 8.844-6.373l23.089-69.501a7.724 7.724 0 0 0-4.895-9.766z" fill="#ffffff" data-original="#ffffff"></path></g><path fill="#aee49e" d="M7.211 236.811h83.192c1.913 0 3.747.76 5.099 2.112l21.759 21.759c2.596 2.596 7.035.757 7.035-2.914v-13.746a7.211 7.211 0 0 1 7.211-7.211h17.195a7.211 7.211 0 0 0 7.211-7.211v-64.4a7.211 7.211 0 0 0-7.211-7.211H7.211A7.211 7.211 0 0 0 0 165.2v64.4a7.212 7.212 0 0 0 7.211 7.211z" data-original="#aee49e"></path><path fill="#8bd8a5" d="M148.702 157.988h-30.905a7.211 7.211 0 0 1 7.211 7.211v47.205c0 13.479-10.927 24.407-24.407 24.407a7.189 7.189 0 0 0-5.099 2.112l21.759 21.759c2.596 2.596 7.035.757 7.035-2.914v-13.746a7.211 7.211 0 0 1 7.211-7.211h17.195a7.211 7.211 0 0 0 7.211-7.211v-64.4a7.21 7.21 0 0 0-7.211-7.212z" data-original="#8bd8a5"></path><path fill="#d5efc8" d="M115.276 205.126H40.638a7.726 7.726 0 1 1 0-15.452h74.638a7.726 7.726 0 1 1 0 15.452z" data-original="#d5efc8"></path></g></svg>