<svg xmlns="http://www.w3.org/2000/svg" version="1.1" xmlns:xlink="http://www.w3.org/1999/xlink" xmlns:svgjs="http://svgjs.com/svgjs" width="512" height="512" x="0" y="0" viewBox="0 0 512 512" style="enable-background:new 0 0 512 512" xml:space="preserve" class=""><g><path fill="#fedf30" d="M157.3 341.859a5.54 5.54 0 0 0 2.152 6.622l28.592 18.61a5.537 5.537 0 0 1 2.327 3.203l4.888 18.166h154.92l4.888-18.166a5.54 5.54 0 0 1 2.327-3.203l28.592-18.61a5.54 5.54 0 0 0 2.152-6.622l-12.193-31.862a5.536 5.536 0 0 1 0-3.959l12.193-31.862a5.539 5.539 0 0 0-2.152-6.622l-28.592-18.61a5.533 5.533 0 0 1-2.327-3.203l-8.864-32.944a5.538 5.538 0 0 0-5.633-4.092l-34.07 1.75a5.54 5.54 0 0 1-3.765-1.223L276.2 187.79a5.54 5.54 0 0 0-6.963 0l-26.534 21.442a5.537 5.537 0 0 1-3.765 1.223l-34.07-1.75a5.54 5.54 0 0 0-5.633 4.092l-8.864 32.944a5.54 5.54 0 0 1-2.327 3.203l-28.592 18.61a5.54 5.54 0 0 0-2.152 6.622l12.193 31.862a5.536 5.536 0 0 1 0 3.959z" data-original="#fedf30"></path><path fill="#fac600" d="M157.3 341.859a5.538 5.538 0 0 0 2.152 6.622l28.592 18.61a5.533 5.533 0 0 1 2.327 3.203l4.888 18.166h22.905c-4.853-14.775-7.491-30.555-7.491-46.954 0-60.395 35.602-112.466 86.959-136.396L276.2 187.79a5.54 5.54 0 0 0-6.963 0l-26.535 21.442a5.536 5.536 0 0 1-3.765 1.223l-34.07-1.75a5.54 5.54 0 0 0-5.633 4.093l-8.864 32.943a5.54 5.54 0 0 1-2.327 3.203l-28.592 18.61a5.54 5.54 0 0 0-2.152 6.622l12.193 31.862a5.536 5.536 0 0 1 0 3.959z" data-original="#fac600"></path><path fill="#fe7ab6" d="M413.226 512H132.211a5.322 5.322 0 0 1-5.322-5.322V392.782a5.322 5.322 0 0 1 5.322-5.322h281.015a5.322 5.322 0 0 1 5.322 5.322v113.896a5.322 5.322 0 0 1-5.322 5.322z" data-original="#fe7ab6"></path><path fill="#fe3d97" d="M178.736 506.678V392.782a5.322 5.322 0 0 1 5.322-5.322h-51.847a5.322 5.322 0 0 0-5.322 5.322v113.896a5.322 5.322 0 0 0 5.322 5.322h51.847a5.322 5.322 0 0 1-5.322-5.322z" data-original="#fe3d97"></path><path fill="#8ac9fe" d="M245.917 387.459h53.602V512h-53.602z" data-original="#8ac9fe"></path><path fill="#60b7ff" d="M245.917 387.459h26.533v124.54h-26.533z" data-original="#60b7ff"></path><g fill="#60b7ff"><path d="m189.758 74.098 2.393 4.146 79.212-45.733L257.61 8.688c-6.319-10.944-21.836-11.697-29.184-1.416l-43.483 60.834a25.465 25.465 0 0 1 4.815 5.992zM68.585 149.584l79.212-45.733-2.393-4.146a25.502 25.502 0 0 1-2.804-7.163L68.197 99.78c-12.578 1.224-19.684 15.038-13.366 25.982z" fill="#60b7ff" data-original="#60b7ff"></path></g><path fill="#8ac9fe" d="m146.931 104.351 46.086-26.607-2.393-4.146c-7.348-12.726-23.62-17.087-36.347-9.739-12.726 7.347-17.087 23.62-9.739 36.347z" data-original="#8ac9fe"></path><g fill="#fe7ab6"><path d="m177.8 171.782-36.916-63.94-1.366-.366-96.301 55.6a5.874 5.874 0 0 0-2.15 8.025l32.041 55.497a5.874 5.874 0 0 0 8.025 2.15l96.301-55.599zM335.798 74.933l-32.041-55.497a5.874 5.874 0 0 0-8.025-2.15l-96.301 55.6-.366 1.366 36.916 63.939 1.366.367 96.301-55.6a5.875 5.875 0 0 0 2.15-8.025z" fill="#fe7ab6" data-original="#fe7ab6"></path></g><g fill="#fe3d97"><path d="m213.27 96.858 101.389-58.537-10.903-18.885a5.875 5.875 0 0 0-8.025-2.15l-96.301 55.6zM85.223 170.786l68.136-39.338-13.841-23.972-96.301 55.599a5.874 5.874 0 0 0-2.15 8.025l32.041 55.497a5.874 5.874 0 0 0 8.025 2.15l23.078-13.324-21.138-36.612a5.874 5.874 0 0 1 2.15-8.025z" fill="#fe3d97" data-original="#fe3d97"></path></g><path fill="#8ac9fe" d="m139.515 107.473 59.91-34.59 37.916 65.671-59.91 34.59z" data-original="#8ac9fe"></path><path fill="#60b7ff" d="m139.514 107.472 59.91-34.59 13.84 23.972-59.91 34.59z" data-original="#60b7ff"></path><path fill="#fe7d43" d="m323.413 178.068 44.437-41.889a2.129 2.129 0 0 0-.396-3.393l-30.378-17.539a2.129 2.129 0 0 0-3.136 1.354l-14.059 59.428c-.486 2.055 1.995 3.488 3.532 2.039z" data-original="#fe7d43"></path><path fill="#00f2a6" d="m410.486 310.057 58.495 17.539a2.128 2.128 0 0 0 2.74-2.039v-35.078a2.128 2.128 0 0 0-2.74-2.039l-58.495 17.539c-2.024.606-2.024 3.471 0 4.078z" data-original="#00f2a6"></path><path fill="#fe7d43" d="m134.952 305.978-58.495-17.539a2.128 2.128 0 0 0-2.74 2.039v35.078a2.128 2.128 0 0 0 2.74 2.039l58.495-17.539c2.023-.606 2.023-3.471 0-4.078z" data-original="#fe7d43"></path><path fill="#8ac9fe" d="m398.515 197.746-16.399 16.399a2.13 2.13 0 0 0 0 3.011l16.399 16.399a2.13 2.13 0 0 0 3.011 0l16.399-16.399a2.13 2.13 0 0 0 0-3.011l-16.399-16.399a2.13 2.13 0 0 0-3.011 0z" data-original="#8ac9fe"></path><path fill="#00f2a6" d="M84.53 363.601 68.131 380a2.13 2.13 0 0 0 0 3.011L84.53 399.41a2.13 2.13 0 0 0 3.011 0l16.399-16.399a2.13 2.13 0 0 0 0-3.011l-16.399-16.399a2.128 2.128 0 0 0-3.011 0z" data-original="#00f2a6"></path><g fill="#fff"><path d="M242.312 296.246c14.054 0 25.487-11.434 25.487-25.487s-11.434-25.487-25.487-25.487-25.487 11.434-25.487 25.487 11.433 25.487 25.487 25.487zm0-35.975c5.783 0 10.487 4.704 10.487 10.487s-4.705 10.487-10.487 10.487-10.487-4.704-10.487-10.487 4.705-10.487 10.487-10.487zM303.125 319.789c-14.054 0-25.487 11.434-25.487 25.487s11.433 25.486 25.487 25.486 25.487-11.434 25.487-25.486c0-14.053-11.433-25.487-25.487-25.487zm0 35.974c-5.782 0-10.487-4.704-10.487-10.486 0-5.783 4.705-10.487 10.487-10.487 5.783 0 10.487 4.704 10.487 10.487 0 5.782-4.704 10.486-10.487 10.486zM318.767 246.777a7.5 7.5 0 0 0-10.502 1.486l-83.083 110.491a7.501 7.501 0 0 0 11.988 9.016l83.083-110.491a7.498 7.498 0 0 0-1.486-10.502z" fill="#ffffff" data-original="#ffffff"></path></g></g></svg>