<svg xmlns="http://www.w3.org/2000/svg" version="1.1" xmlns:xlink="http://www.w3.org/1999/xlink" xmlns:svgjs="http://svgjs.com/svgjs" width="512" height="512" x="0" y="0" viewBox="0 0 497 497" style="enable-background:new 0 0 512 512" xml:space="preserve" class=""><g><path fill="#f5f5f5" d="M457 109.5v328c0 22.09-17.91 40-40 40H80c-22.09 0-40-17.91-40-40v-328z" data-original="#f5f5f5"></path><path fill="#e6e6e6" d="M100 477.5H80c-22.09 0-40-17.91-40-40v-328h20v328c0 22.09 17.91 40 40 40z" data-original="#e6e6e6"></path><path fill="#e6e6e6" d="M457 127.5v130.33c-2.6.44-5.27.67-8 .67h-7c-13.26 0-25.26-5.37-33.94-14.06-8.69-8.68-14.06-20.68-14.06-33.94 0 13.26-5.37 25.26-14.06 33.94-8.68 8.69-20.68 14.06-33.94 14.06-26.51 0-48-21.49-48-48 0 26.51-21.49 48-48 48h-1c-13.26 0-25.26-5.37-33.94-14.06-8.69-8.68-14.06-20.68-14.06-33.94 0 26.51-21.49 48-48 48h-2c-13.26 0-25.26-5.37-33.94-14.06-8.69-8.68-14.06-20.68-14.06-33.94 0 26.51-21.49 48-48 48h-7c-2.73 0-5.4-.23-8-.67V127.5z" data-original="#e6e6e6"></path><path fill="#fd646f" d="m113.78 109.5-9.77 67.06c-.67 5.29-1.01 10.61-1.01 15.94 0 .84-.02 1.67-.06 2.5-1.3 25.35-22.27 45.5-47.94 45.5h-7c-13.26 0-25.26-5.37-33.94-14.06C5.92 218.31.69 207.27.06 195c-.04-.83-.06-1.66-.06-2.5 0-5.27 1.16-10.47 3.41-15.24L40 109.5l33.628-10z" data-original="#fd646f"></path><path fill="#ffc682" d="M201 109.5v83c0 .84-.02 1.67-.06 2.5-1.3 25.35-22.27 45.5-47.94 45.5h-2c-13.26 0-25.26-5.37-33.94-14.06-8.14-8.13-13.37-19.17-14-31.44-.04-.83-.06-1.66-.06-2.5 0-5.33.34-10.65 1.01-15.94l9.77-67.06 42.231-10z" data-original="#ffc682"></path><path fill="#fd646f" d="M298 109.5v83c0 .84-.02 1.67-.06 2.5-1.3 25.35-22.27 45.5-47.94 45.5h-1c-25.67 0-46.64-20.15-47.94-45.5-.04-.83-.06-1.66-.06-2.5v-83l49.5-10z" data-original="#fd646f"></path><path fill="#ffc682" d="M394 192.5c0 .84-.02 1.67-.06 2.5-.63 12.27-5.86 23.31-14 31.44-8.68 8.69-20.68 14.06-33.94 14.06-25.67 0-46.64-20.15-47.94-45.5-.04-.83-.06-1.66-.06-2.5v-83l44.5-10 41.72 10 8.87 67.05c.6 5.3.91 10.62.91 15.95z" data-original="#ffc682"></path><path fill="#fd646f" d="M497 192.5c0 .84-.02 1.67-.06 2.5-1.3 25.35-22.27 45.5-47.94 45.5h-7c-13.26 0-25.26-5.37-33.94-14.06-8.14-8.13-13.37-19.17-14-31.44-.04-.83-.06-1.66-.06-2.5 0-5.33-.31-10.65-.91-15.95l-8.87-67.05 36.301-10 36.479 10 36.59 67.76c1.13 2.38 1.98 4.88 2.55 7.43.57 2.56.86 5.17.86 7.81z" data-original="#fd646f"></path><path fill="#50758d" d="M346.352 299.983A7.5 7.5 0 0 0 339 291H169.947l-.253-1.194C167.02 277.171 155.705 268 142.791 268H130c-4.142 0-7.5 3.357-7.5 7.5s3.358 7.5 7.5 7.5h12.791c5.87 0 11.013 4.168 12.229 9.911l22.286 105.283c2.105 9.945 9.573 17.722 18.951 20.592a22.369 22.369 0 0 0-1.757 8.714c0 12.406 10.093 22.5 22.5 22.5s22.5-10.094 22.5-22.5c0-2.629-.458-5.153-1.29-7.5h33.58a22.38 22.38 0 0 0-1.29 7.5c0 12.406 10.093 22.5 22.5 22.5s22.5-10.094 22.5-22.5c0-2.629-.458-5.153-1.29-7.5H316c4.142 0 7.5-3.357 7.5-7.5s-3.358-7.5-7.5-7.5H204.209c-5.87 0-11.013-4.168-12.229-9.911L190.057 386h37.913l.021.001.016-.001h47.987l.016.001.021-.001h46.83a7.5 7.5 0 0 0 7.352-6.017l7.881-39.061a7.44 7.44 0 0 0 .38-1.885zM224.5 427.5c0 4.136-3.364 7.5-7.5 7.5s-7.5-3.364-7.5-7.5 3.364-7.5 7.5-7.5 7.5 3.364 7.5 7.5zm76 0c0 4.136-3.364 7.5-7.5 7.5s-7.5-3.364-7.5-7.5 3.364-7.5 7.5-7.5 7.5 3.364 7.5 7.5zm24.292-96.5h-35.296l3.125-25h37.215zm-90.171 40-3.125-25h41.009l-3.125 25zm-5-40-3.125-25h51.009l-3.125 25zm-18.242-25 3.125 25h-36.09l-5.292-25zm-29.79 40h34.79l3.125 25h-32.623zm102.907 25 3.125-25h34.145l-5.044 25z" data-original="#50758d"></path><path fill="#fc4755" d="M.06 195h102.88c-1.3 25.35-22.27 45.5-47.94 45.5h-7c-13.26 0-25.26-5.37-33.94-14.06C5.92 218.31.69 207.27.06 195z" data-original="#fc4755"></path><path fill="#ffac5c" d="M103.06 195h97.88c-1.3 25.35-22.27 45.5-47.94 45.5h-2c-13.26 0-25.26-5.37-33.94-14.06-8.14-8.13-13.37-19.17-14-31.44z" data-original="#ffac5c"></path><path fill="#fc4755" d="M201.06 195h96.88c-1.3 25.35-22.27 45.5-47.94 45.5h-1c-25.67 0-46.64-20.15-47.94-45.5z" data-original="#fc4755"></path><path fill="#ffac5c" d="M298.06 195h95.88c-.63 12.27-5.86 23.31-14 31.44-8.68 8.69-20.68 14.06-33.94 14.06-25.67 0-46.64-20.15-47.94-45.5z" data-original="#ffac5c"></path><path fill="#fc4755" d="M496.94 195c-1.3 25.35-22.27 45.5-47.94 45.5h-7c-13.26 0-25.26-5.37-33.94-14.06-8.14-8.13-13.37-19.17-14-31.44z" data-original="#fc4755"></path><path fill="#50758d" d="M40 109.5v-50c0-22.091 17.909-40 40-40h337c22.091 0 40 17.909 40 40v50z" data-original="#50758d"></path><g fill="#2b597f"><path d="M102.85 78.848c3.362-3.933 5.4-9.031 5.4-14.598 0-12.406-10.093-22.5-22.5-22.5-6.996 0-13.256 3.21-17.386 8.235-1.906 2.222-3.811 4.444-5.715 6.667A22.396 22.396 0 0 0 57.25 71.25c0 12.406 10.093 22.5 22.5 22.5 6.997 0 13.257-3.211 17.387-8.236.095-.111 3.905-4.554 5.713-6.666zM162.1 79.098c3.362-3.933 5.4-9.031 5.4-14.598 0-12.406-10.093-22.5-22.5-22.5-6.996 0-13.256 3.21-17.386 8.235-1.906 2.222-3.811 4.444-5.715 6.667A22.396 22.396 0 0 0 116.5 71.5c0 12.406 10.093 22.5 22.5 22.5 6.997 0 13.257-3.211 17.387-8.236.095-.111 3.905-4.554 5.713-6.666zM221.1 79.098c3.362-3.933 5.4-9.031 5.4-14.598 0-12.406-10.093-22.5-22.5-22.5-6.996 0-13.256 3.21-17.386 8.235-1.906 2.222-3.811 4.444-5.715 6.667A22.396 22.396 0 0 0 175.5 71.5c0 12.406 10.093 22.5 22.5 22.5 6.997 0 13.257-3.211 17.387-8.236.095-.111 3.905-4.554 5.713-6.666z" fill="#2b597f" data-original="#2b597f"></path></g><path fill="#fd646f" d="M85.75 86.75c-12.407 0-22.5-10.094-22.5-22.5s10.093-22.5 22.5-22.5 22.5 10.094 22.5 22.5-10.093 22.5-22.5 22.5z" data-original="#fd646f"></path><path fill="#ffc682" d="M145 87c-12.407 0-22.5-10.094-22.5-22.5S132.593 42 145 42s22.5 10.094 22.5 22.5S157.407 87 145 87z" data-original="#ffc682"></path><path fill="#93ddb7" d="M204 87c-12.407 0-22.5-10.094-22.5-22.5S191.593 42 204 42s22.5 10.094 22.5 22.5S216.407 87 204 87z" data-original="#93ddb7"></path><path fill="#2b597f" d="M429.1 79.098c3.362-3.933 5.4-9.031 5.4-14.598 0-12.406-10.093-22.5-22.5-22.5H279c-6.996 0-13.256 3.21-17.386 8.235-1.906 2.222-3.811 4.444-5.715 6.667A22.396 22.396 0 0 0 250.5 71.5c0 12.406 10.093 22.5 22.5 22.5h133c6.997 0 13.257-3.211 17.387-8.236.095-.111 3.905-4.554 5.713-6.666z" data-original="#2b597f"></path><path fill="#f5f5f5" d="M412 87H279c-12.407 0-22.5-10.094-22.5-22.5S266.593 42 279 42h133c12.407 0 22.5 10.094 22.5 22.5S424.407 87 412 87z" data-original="#f5f5f5"></path><path fill="#ffc682" d="M145 87c-12.407 0-22.5-10.094-22.5-22.5S132.593 42 145 42s22.5 10.094 22.5 22.5S157.407 87 145 87z" data-original="#ffc682"></path><path fill="#93ddb7" d="M204 87c-12.407 0-22.5-10.094-22.5-22.5S191.593 42 204 42s22.5 10.094 22.5 22.5S216.407 87 204 87z" data-original="#93ddb7"></path></g></svg>