<?xml version="1.0" encoding="UTF-8"?>
<svg id="Layer_2" data-name="Layer 2" xmlns="http://www.w3.org/2000/svg" viewBox="0 0 1415.91 981.48">
  <defs>
    <style>
      .cls-1 {
        fill: none;
        stroke: #231f20;
        stroke-miterlimit: 10;
        stroke-width: 8px;
      }

      .cls-2 {
        fill: #f05161;
      }

      .cls-3 {
        fill: #26364f;
      }

      .cls-4 {
        fill: #231f20;
        font-family: Korto-Bold, Korto;
        font-size: 75.1px;
        font-weight: 700;
      }
    </style>
  </defs>
  <g id="Layer_1-2" data-name="Layer 1">
    <g>
      <g>
        <path class="cls-2" d="M121.09,955.89h63.63v22.82H96.83v-147.41h85.63v22.72h-61.37v38.44h55.92v22.2h-55.92v41.22Z"/>
        <path class="cls-2" d="M399.63,831.3h26.42l-57.36,147.41h-22.61l-58.8-147.41h26.72l43.28,112.77,42.35-112.77Z"/>
        <path class="cls-2" d="M563.14,955.89h63.63v22.82h-87.89v-147.41h85.63v22.72h-61.37v38.44h55.92v22.2h-55.92v41.22Z"/>
        <path class="cls-2" d="M843.33,831.3h23.64v147.41h-20.25l-76.58-105.26v105.26h-23.75v-147.41h21.89l75.04,103.52v-103.52Z"/>
        <path class="cls-2" d="M1091.34,831.3l.1,22.61h-43.28v124.8h-24.16v-124.8h-43.17v-22.61h110.5Z"/>
        <path class="cls-2" d="M1307.18,971.51c-11.86,6.65-25.12,9.97-39.78,9.97s-27.94-3.32-39.83-9.97c-11.89-6.65-21.19-15.79-27.91-27.45-6.72-11.65-10.08-24.67-10.08-39.06s3.36-27.41,10.08-39.06c6.72-11.65,16.02-20.8,27.91-27.45,11.89-6.65,25.17-9.97,39.83-9.97s27.93,3.32,39.78,9.97c11.86,6.65,21.12,15.8,27.81,27.45,6.68,11.65,10.02,24.67,10.02,39.06s-3.34,27.41-10.02,39.06c-6.68,11.65-15.95,20.8-27.81,27.45Zm-39.78-13.36c15.21,0,27.86-5.05,37.93-15.16,10.07-10.11,15.11-22.77,15.11-37.98s-5.04-27.88-15.11-37.98c-10.08-10.11-22.72-15.16-37.93-15.16-10.01,0-19.07,2.31-27.19,6.94-8.12,4.63-14.48,11-19.07,19.12-4.6,8.12-6.89,17.15-6.89,27.09s2.29,18.97,6.89,27.09c4.59,8.12,10.95,14.49,19.07,19.12,8.12,4.62,17.18,6.94,27.19,6.94Z"/>
      </g>
      <path class="cls-3" d="M236.82,583.26h-93.72v64.39h85.32v34.26h-85.32v93.72h-37.43v-227.41H236.82v35.05Zm77.7,157.16h98.16v35.21h-135.59v-227.41h132.1v35.05h-94.67v59.31h86.27v34.25h-86.27v63.59Zm214.09,38.69c-25.8,0-46.55-6.74-62.24-20.22-15.7-13.48-23.55-31.74-23.55-54.79h37.9c0,12.27,4.47,21.89,13.4,28.86,8.93,6.98,20.32,10.47,34.17,10.47,12.58,0,23.21-3.06,31.88-9.2,8.67-6.13,13-14.27,13-24.42,0-2.22-.21-4.31-.63-6.26-.42-1.95-1.16-3.78-2.22-5.47-1.06-1.69-2.06-3.2-3.01-4.52-.95-1.32-2.46-2.62-4.52-3.88-2.06-1.27-3.75-2.35-5.07-3.25-1.32-.9-3.41-1.85-6.26-2.86-2.86-1-5.07-1.8-6.66-2.38-1.59-.58-4.1-1.32-7.53-2.22-3.44-.9-5.98-1.53-7.61-1.9-1.64-.37-4.36-1.03-8.17-1.98-19.35-4.65-33.3-9.04-41.87-13.16-19.24-9.3-30.03-23.52-32.35-42.66-.42-2.96-.63-6.03-.63-9.2,0-20.4,7.16-36.37,21.49-47.89,14.33-11.52,33.7-17.29,58.12-17.29s43.74,6.24,57.65,18.71c13.9,12.48,20.86,29.5,20.86,51.06h-36.79c0-10.99-3.99-19.58-11.98-25.77-7.98-6.19-18.15-9.28-30.53-9.28s-21.7,2.56-29.58,7.69c-7.88,5.13-11.81,12.19-11.81,21.17,0,3.39,.55,6.45,1.67,9.2,1.11,2.75,2.96,5.21,5.55,7.38,2.59,2.17,5.13,3.99,7.61,5.47,2.48,1.48,6.03,2.96,10.62,4.44,4.6,1.48,8.46,2.64,11.58,3.49,3.12,.85,7.53,1.96,13.24,3.33,19.56,4.86,33.67,9.36,42.34,13.48,19.77,9.62,31.09,24.05,33.94,43.29,.53,3.49,.79,7.14,.79,10.94,0,14.7-3.73,27.38-11.18,38.06-7.45,10.68-17.36,18.61-29.73,23.79-12.37,5.18-26.33,7.77-41.87,7.77Zm270.39-230.9l.16,34.89h-66.77v192.52h-37.27v-192.52h-66.6v-34.89h170.48Zm171.43,220.43c-13.85,7.51-29.39,11.26-46.62,11.26s-32.8-3.75-46.7-11.26c-13.9-7.51-24.82-18.08-32.75-31.72-7.93-13.64-11.89-29.07-11.89-46.31v-142.41h37.43v140.03c0,16.71,5.02,30.19,15.06,40.44,10.04,10.26,22.99,15.38,38.85,15.38s28.63-5.13,38.62-15.38c9.99-10.25,14.98-23.73,14.98-40.44v-140.03h37.59v142.41c0,17.24-3.96,32.67-11.89,46.31-7.93,13.64-18.82,24.21-32.67,31.72Zm369.98,6.98h-38.06l-26.33-164.77-73.9,161.28h-9.51l-74.06-161.12-26.64,164.61h-38.06l37.27-227.41h36.63l69.3,154.62,69.62-154.62h37.27l36.47,227.41Z"/>
      <g>
        <path class="cls-3" d="M557.61,614.66c0-7.8-2.53-13.4-7.97-17.62-6.18-4.78-14.09-7.11-24.2-7.11s-17.81,2.02-23.95,6.01c-4.93,3.21-7.12,7.07-7.12,12.52,0,.38,.15,.63,.17,.99,20.33,1.82,41.33,3.82,63.07,5.96v-.76Z"/>
        <path class="cls-3" d="M822.14,537.88h58.07v107.4c30.09,1.38,59.05,1.86,86.87,1.58v-108.98h58.24v107.27c13.61-.67,26.89-1.52,39.86-2.53l17.17-104.74h52.09l41.12,91.73c16.46-2.65,32.1-5.51,46.97-8.5l37.47-83.23h52.75l9.37,58.43c65.54-19.87,98.25-37.64,93.31-36-12.54,4.18-83.63,16.73-83.63,16.73v-158.9l-16.73,12.54v62.72l-41.81,4.18c8.36-20.91-16.73-29.27-16.73-29.27v-25.09h-12.54v25.09c-12.28,3.07-15.53,15.14-16.4,21.34l-59.46-91.69c17.56-10.9,32.77-24.82,44.78-40.96,4.01,5.57,10.65,11.96,16.5,15.85,12.19,8.1,27.55,9.75,32.3,2.35,4.75-7.41-4.1-19.21-17.54-25.36-6.34-2.9-15.36-5.3-22.47-5.99,13.21-22.19,20.76-47.69,20.76-74.82,0-5.95-.4-11.81-1.1-17.58,6.97,1.98,16.9,2.94,24.32,2.37,14.93-1.15,27.79-9.14,26.27-17.65-1.52-8.51-16.47-12.19-30.99-8.79-7.19,1.68-16.21,5.56-22.13,9.52-7.29-32.03-25.25-60.43-50.24-81.83l.46-.48c6.91-2.47,15.99-8.15,21.63-13.41,10.58-9.87,14.85-23.7,7.78-29.28-7.07-5.58-21.03,.61-29.75,11.95-4.64,6.04-9.18,15.31-10.66,22.06l-.47,.54c-26.35-18.95-58.93-30.72-94.36-32.12l.07-2.74c3.56-6.04,6.54-15.84,7.19-23.25,1.22-13.9-5.13-27.02-14.4-27.02s-15.62,13.13-14.4,27.02c.65,7.4,3.64,17.21,7.19,23.25l.08,2.74c-32.42,1.28-62.46,11.24-87.52,27.45l-2.64-3.34c-1.16-6.8-5.25-16.26-9.6-22.48-8.17-11.68-21.83-18.44-29.15-13.16-7.33,5.28-3.72,19.28,6.39,29.57,5.38,5.48,14.19,11.53,20.97,14.28l2.71,3.09c-25.6,19.75-44.73,46.5-54.05,77.05l-4.38-.97c-5.61-4.49-15.29-9.24-22.94-11.37-14.35-4-29.46-.93-31.38,7.51-1.92,8.44,10.55,16.95,25.41,18.72,7.91,.94,18.84,.26,25.92-1.73l4.07,.7c-1.97,9.52-3.04,19.34-3.04,29.39,0,22.25,5.11,43.4,14.22,62.54l-2.76,1.3c-7.4-.05-18.09,2.15-25.4,5.13-4.35,1.77-8.26,4.13-11.44,6.77v-14.45c20.91-16.73-8.36-12.54-8.36-12.54v-54.36h-20.91v54.36s-16.73,0-16.73,4.18,16.73,12.54,16.73,12.54v108.72c0,8.36-37.63,8.36-37.63,8.36v-54.36c-4.18-12.54-20.91-12.54-20.91-12.54v-50.18l-50.18-25.09-46,25.09v50.18c-16.73-4.18-20.91,12.54-20.91,12.54v41.81c-41.81-4.18-46,33.45-46,33.45l-12.54-71.09h-12.54s-16.73-100.35-20.91-112.9c-4.18-12.54-29.27-25.09-54.36-8.36-25.09,16.73-46,204.89-46,204.89h-41.81v-25.09h-29.27v25.09h-96.17V255.07h-16.73v-83.63h-20.91V91.99L248.8,0l-33.45,96.17v87.81h-16.73l-29.27,29.27h12.54v104.54h-4.18v16.73h12.54v125.44h-25.09v-66.9h-8.36v-71.09h-8.36v71.09h-8.36v58.54h-16.73v-58.54h-8.36v-50.18h-8.36v52.27h-10.45v87.81h-12.54v108.72C25.09,612.58,0,654.4,0,654.4c32.12-13.41,63.64-23.91,95.34-32.07v-84.45H247.14v55.71h-93.72v16.47c36.55-6.11,73.97-9.45,113.35-10.63v-61.55h152.75v55.71h-94.67v5.55c35.25,.64,72.35,2.61,111.96,5.56,1.25-21,9.36-38.13,24.83-50.58,16.14-12.98,37.87-19.57,64.59-19.57s48.76,7.19,64.54,21.35c16.12,14.47,24.29,34.24,24.29,58.75v6.53c22.46,2.29,45.67,4.67,69.73,7.12v-34.88h-66.6v-55.55h191.08l.25,55.55h-66.81v40.7c18.86,1.87,38.14,3.75,58.03,5.63,7.2,.68,14.3,1.27,21.39,1.84v-103.72Zm398.87-44.47h-10.48l-25.09-41.81h-8.36v29.27h-46v20.91l-19.44-1.02-10.76-78.57c5.67-.79,11.25-1.84,16.71-3.15-.97,6.74-.36,16.05,1.47,22.8,3.67,13.52,14.24,24.02,23.01,21.23,8.77-2.79,10.22-17.12,4.23-29.9-2.92-6.23-8.38-13.74-13.47-18.54,10.08-3.42,19.71-7.72,28.78-12.8l59.39,91.59Zm-108.09-90.2c-4.67,1.11-9.43,2.02-14.26,2.71l-10.39-75.84,24.65,73.13Zm-27.87-106.24c2.4-.67,4.67-1.6,6.79-2.75l60.68,93.57c-8.37,4.68-17.27,8.62-26.6,11.71l-40.86-102.53Zm73.97,86.97l-61.01-94.09c.34-.31,.65-.64,.98-.96l99.58,58.6c-10.62,14.32-24.04,26.71-39.55,36.45Zm65.82-114.9c0,24.58-6.94,47.66-19.05,67.69l-102.29-53.57c2.49-4.18,3.92-8.99,3.92-14.11,0-.24-.03-.47-.04-.71l116.45-15.21c.65,5.23,1.01,10.53,1.01,15.91Zm-3.16-28.4l-115.4,20.73c-1.39-4.75-4.03-9.02-7.59-12.48l78.17-81.59c22.33,19.19,38.36,44.64,44.81,73.33Zm-138.89-109.91c31.43,1.3,60.34,11.73,83.77,28.5l-73.62,85.25c-3.88-2.31-8.33-3.85-13.13-4.37l2.98-109.38Zm-6.5,167.45l14.87,108.62c-4.95,.47-9.97,.71-15.05,.71-18.97,0-37.1-3.36-53.8-9.41l40.06-102.89c4.15,1.89,8.8,2.99,13.74,2.99,.06,0,.12,0,.18,0Zm-66.32,94.83c-27.26-12.66-49.8-32.85-64.4-57.66l101.99-54.36c1.95,4.03,4.84,7.58,8.43,10.39l-46.03,101.64Zm59.47-262.29l3.04,109.37c-3.92,.42-7.62,1.52-10.97,3.16l-69.63-88.26c22.25-14.29,48.85-23.08,77.56-24.27Zm-88.16,31.72l74.25,84.66c-3.08,2.51-5.62,5.57-7.46,9.02l-114.82-25.51c8.4-27.01,25.37-50.66,48.04-68.16Zm-51.16,80.19l115.49,19.9c-.51,2.09-.81,4.26-.81,6.5,0,1.82,.2,3.59,.55,5.32l-105.64,49.81c-7.91-16.91-12.33-35.54-12.33-55.13,0-9.03,.96-17.85,2.74-26.4Zm-45.73,124.72c6.82,1.5,16.6-.61,25.09-5.74,6.69-4.04,14.55-11.14,18.57-16.92l2.25-1.2c16.51,27.91,42,50.59,72.82,64.67l-.3,.67c-5.68,4.42-12.3,12.53-15.81,19.2-6.59,12.52-5.82,26.9,2.81,30.05,8.63,3.15,19.69-6.91,24-20.27,2.3-7.11,3.36-17.26,2.42-24.09l.08-.22c18.57,6.69,38.73,10.39,59.8,10.39,5.84,0,11.6-.29,17.28-.84l10.58,77.27-171.5-9.03-48.09-48.09v-75.88Z"/>
      </g>
    </g>
    <circle class="cls-1" cx="1347.51" cy="53.35" r="48.37"/>
    <text class="cls-4" transform="translate(1323.81 79.62)"><tspan x="0" y="0">R</tspan></text>
  </g>
</svg>