<svg xmlns="http://www.w3.org/2000/svg" version="1.1" xmlns:xlink="http://www.w3.org/1999/xlink" xmlns:svgjs="http://svgjs.com/svgjs" width="512" height="512" x="0" y="0" viewBox="0 0 512 512" style="enable-background:new 0 0 512 512" xml:space="preserve" class=""><g><path fill="#f2fbff" d="M423.021 429.645H29.935V190.994c0-13.69 11.098-24.787 24.787-24.787h343.511c13.69 0 24.787 11.098 24.787 24.787v238.651z" data-original="#f2fbff"></path><path fill="#deecf1" d="M423.023 190.996v238.652h-28.186l-.001-54.565-17.471-97.961 17.471-70.625.001-15.501c0-13.691-11.095-24.786-24.786-24.786h28.186c13.691-.001 24.786 11.094 24.786 24.786z" data-original="#deecf1"></path><path fill="#9be69d" d="M368.934 384.122h-43.353l-99.103-28.436-99.102 28.436H71.121c-7.18 0-13.001-5.821-13.001-13.001V206.497c0-7.18 5.821-13.001 13.001-13.001h310.714c7.18 0 13.001 5.821 13.001 13.001v38.623z" data-original="#9be69d"></path><path fill="#ffdfcf" d="M252.106 277.121H200.85v57.111l51.256-15.737z" data-original="#ffdfcf"></path><path fill="#60b7ff" d="M252.106 318.495H200.85l-41.74 15.574a43.152 43.152 0 0 0-26.81 30.092l-4.924 19.961h198.205l-4.924-19.961a43.15 43.15 0 0 0-26.81-30.092z" data-original="#60b7ff"></path><path fill="#ffdfcf" d="M285.186 245.12h-6.444l-10.85-40.901h17.293c11.294 0 20.45 9.156 20.45 20.45.002 11.295-9.154 20.451-20.449 20.451zM167.77 245.12h13.106l-6.662-40.901h-6.444c-11.294 0-20.45 9.156-20.45 20.45-.001 11.295 9.155 20.451 20.45 20.451z" data-original="#ffdfcf"></path><path fill="#ffeee6" d="M239.265 286.342h-25.574c-21.803 0-39.477-17.675-39.477-39.477V174.99h104.529v71.875c-.001 21.802-17.675 39.477-39.478 39.477z" data-original="#ffeee6"></path><path fill="#ffe177" d="M92.016 68.594H6.266A6.266 6.266 0 0 0 0 74.861V187.23a6.266 6.266 0 0 0 6.266 6.266h34.657a9.599 9.599 0 0 1 8.114 4.47l12.002 18.987c1.23 1.946 4.069 1.946 5.299 0l12.002-18.987a9.599 9.599 0 0 1 8.114-4.47h5.563c3.461 0 17.678-2.805 17.678-6.266V74.86c-.001-3.46-14.219-6.266-17.679-6.266z" data-original="#ffe177"></path><path fill="#ffd15b" d="M127.372 74.863v112.362c0 3.461-2.802 6.274-6.263 6.274H92.016c3.461 0 6.263-2.812 6.263-6.274l.004-38.776-10.226-7.782 10.226-12.713-.004-53.091c0-3.461-2.802-6.274-6.263-6.274h29.092c3.461 0 6.264 2.813 6.264 6.274z" data-original="#ffd15b"></path><path fill="#fe93bb" d="M505.89 137.689H316.069c-3.91 0-5.904-4.694-3.19-7.508l17.895-18.554a6.43 6.43 0 0 0 1.802-4.464V65.368a6.11 6.11 0 0 1 6.11-6.11H505.89a6.11 6.11 0 0 1 6.11 6.11v66.211a6.11 6.11 0 0 1-6.11 6.11z" data-original="#fe93bb"></path><path fill="#fe76a8" d="M512 65.365v66.21c0 3.379-2.74 6.119-6.109 6.119h-29.092a6.111 6.111 0 0 0 6.109-6.119v-66.21a6.109 6.109 0 0 0-6.109-6.109h29.092A6.115 6.115 0 0 1 512 65.365z" data-original="#fe76a8"></path><path fill="#f2fbff" d="M88.372 158.361h-35.11l-5.233-17.694 5.233-17.694 19.669-21.308a4.093 4.093 0 0 1 7.073 3.242l-1.226 10.683a2.2 2.2 0 0 0 2.186 2.451h7.408c5.474 0 9.912 4.438 9.912 9.912v20.494c0 5.476-4.438 9.914-9.912 9.914z" data-original="#f2fbff"></path><path fill="#60b7ff" d="M34.65 158.361h18.612v-35.387H34.65a5.557 5.557 0 0 0-5.558 5.558v24.271a5.557 5.557 0 0 0 5.558 5.558z" data-original="#60b7ff"></path><path fill="#678d98" d="M174.214 204.219s8.269 3.232 17.564-6.251c3.026-3.087 7.803-3.551 11.518-1.34 6.442 3.835 16.927 7.427 28.165.46a9.5 9.5 0 0 1 10.231.14c8.66 5.67 26.84 13.689 44.548-2.966 11.51-10.826 13.509-24.633 10.055-35.736-3.275-10.526-12.247-22.963-29.684-26.055-15.07-2.672-36.058-2.001-58.196 10.325a10.606 10.606 0 0 1-7.41 1.089c-6.031-1.304-18.173-2.552-28.286 5.07-10.414 7.849-18.114 28.145 1.495 55.264z" data-original="#678d98"></path><path fill="#ffdfcf" d="M226.117 263.204c-7.471 0-13.182-4.049-15.291-5.791a7.725 7.725 0 0 1-1.038-10.877 7.724 7.724 0 0 1 10.877-1.038c1.358 1.122 3.571 2.254 5.452 2.254 2.861 0 3.829-.669 6.167-2.284l.559-.385a7.727 7.727 0 0 1 8.734 12.747l-.51.352c-3.068 2.119-7.27 5.022-14.95 5.022z" data-original="#ffdfcf"></path><g fill="#f2fbff"><path d="M376.754 107.135h-.044c-1.23.007-2.502.013-3.726.018V82.058a7.726 7.726 0 1 0-15.452 0v32.803a7.726 7.726 0 0 0 6.419 7.615c.554.096.833.143 4.677.143 1.805 0 4.395-.011 8.17-.032a7.727 7.727 0 0 0-.044-15.452zM400.544 74.332a7.725 7.725 0 0 0-7.726 7.726v32.831a7.726 7.726 0 1 0 15.452 0V82.058a7.725 7.725 0 0 0-7.726-7.726zM490.634 114.742a7.722 7.722 0 0 1-7.726 7.726h-11.064a7.729 7.729 0 0 1-7.726-7.726V82.208a7.729 7.729 0 0 1 7.726-7.726h11.064c4.275 0 7.726 3.461 7.726 7.726s-3.451 7.726-7.726 7.726h-3.338v.814h3.338c4.275 0 7.726 3.461 7.726 7.726s-3.451 7.726-7.726 7.726h-3.338v.814h3.338a7.724 7.724 0 0 1 7.726 7.728z" fill="#f2fbff" data-original="#f2fbff"></path></g><path fill="#deecf1" d="M484.535 106.201h-1.628V90.749h1.628a7.722 7.722 0 0 1 7.726 7.726 7.72 7.72 0 0 1-7.726 7.726zM493.271 114.742a7.722 7.722 0 0 1-7.726 7.726h-2.637v-15.453h2.637a7.723 7.723 0 0 1 7.726 7.727zM485.545 89.935h-2.637V74.482h2.637c4.275 0 7.726 3.461 7.726 7.726s-3.451 7.727-7.726 7.727z" data-original="#deecf1"></path><path fill="#f2fbff" d="M450.116 74.786a7.728 7.728 0 0 0-9.768 4.897l-4.234 12.744-4.479-12.903a7.727 7.727 0 0 0-14.598 5.067l11.24 32.383a8.473 8.473 0 0 0 7.981 5.64h.053c3.603-.023 6.804-2.329 7.981-5.793l10.719-32.268a7.724 7.724 0 0 0-4.895-9.767z" data-original="#f2fbff"></path><path fill="#678d98" d="M501.335 301.608h-19.446l-8.512-63.316h27.958c5.89 0 10.665 4.775 10.665 10.665v41.986c0 5.89-4.775 10.665-10.665 10.665zM385.797 384.122h-16.863a9.04 9.04 0 0 1-9.04-9.04v-76.004h34.943v76.004a9.04 9.04 0 0 1-9.04 9.04z" data-original="#678d98"></path><path fill="#f2fbff" d="m435.162 197.135 16.171 71.071-16.171 74.557-90.606-38.631-10.407-35.926 10.407-32.44z" data-original="#f2fbff"></path><path fill="#26a6fe" d="M481.893 199.736v140.427c0 10.159-9.958 17.357-19.607 14.162l-27.124-11.561V197.135l27.124-11.561c9.649-3.195 19.607 4.002 19.607 14.162z" data-original="#26a6fe"></path><path fill="#678d98" d="M344.562 304.13h-24.45a8.059 8.059 0 0 1-8.059-8.059V243.83a8.059 8.059 0 0 1 8.059-8.059h24.45z" data-original="#678d98"></path><path fill="#925cb4" d="M414.537 452.743H38.419c-16.28 0-30.362-9.413-37.1-23.093-4.139-8.404 1.97-18.239 11.338-18.239h427.642c9.368 0 15.478 9.835 11.338 18.239-6.737 13.68-20.819 23.093-37.1 23.093z" data-original="#925cb4"></path><path fill="#814ba2" d="M451.642 429.647c-6.737 13.681-20.82 23.097-37.107 23.097h-28.186c16.287 0 30.37-9.416 37.107-23.097 4.141-8.406-1.978-18.234-11.342-18.234H440.3c9.364 0 15.473 9.828 11.342 18.234z" data-original="#814ba2"></path></g></svg>