<svg xmlns="http://www.w3.org/2000/svg" version="1.1" xmlns:xlink="http://www.w3.org/1999/xlink" xmlns:svgjs="http://svgjs.com/svgjs" width="512" height="512" x="0" y="0" viewBox="0 0 64 64" style="enable-background:new 0 0 512 512" xml:space="preserve" class=""><g><path fill="#b18068" d="M61 62H3v-4h58z" data-original="#b18068"></path><path fill="#a46b4f" d="M5 58h56v4H5z" data-original="#a46b4f"></path><path fill="#d8d2d4" d="M61 58H3V18h58z" data-original="#d8d2d4"></path><path fill="#c9c0c3" d="M5 18h56v40H5z" data-original="#c9c0c3"></path><path fill="#c9c0c3" d="M61 18H3v5.639A5.157 5.157 0 0 0 4.875 24a5.556 5.556 0 0 0 3.875-1.664A5.556 5.556 0 0 0 12.625 24a5.56 5.56 0 0 0 3.875-1.664 5.344 5.344 0 0 0 7.75 0 5.344 5.344 0 0 0 7.75 0 5.344 5.344 0 0 0 7.75 0 5.344 5.344 0 0 0 7.75 0 5.344 5.344 0 0 0 7.75 0A5.56 5.56 0 0 0 59.125 24 5.157 5.157 0 0 0 61 23.639z" data-original="#c9c0c3"></path><path fill="#baafb3" d="M61 18H5v6a5.565 5.565 0 0 0 3.75-1.659A5.556 5.556 0 0 0 12.625 24a5.56 5.56 0 0 0 3.875-1.664 5.344 5.344 0 0 0 7.75 0 5.344 5.344 0 0 0 7.75 0 5.344 5.344 0 0 0 7.75 0 5.344 5.344 0 0 0 7.75 0 5.344 5.344 0 0 0 7.75 0A5.56 5.56 0 0 0 59.125 24 5.157 5.157 0 0 0 61 23.639z" data-original="#baafb3"></path><path fill="#fcde91" d="M25 28h32v30H25z" data-original="#fcde91"></path><path fill="#feedb2" d="M28 31h29v27H28z" data-original="#feedb2" class=""></path><path fill="#f8d270" d="M57 27H25a1 1 0 0 0-1 1v30h2V29h30v29h2V28a1 1 0 0 0-1-1z" data-original="#f8d270"></path><path fill="#996047" d="M21 34H7v-6h14z" data-original="#996047"></path><path fill="#a46b4f" d="M21 34H10v-3h11z" data-original="#a46b4f"></path><path fill="#fffad2" d="M3 6h58v6H3z" data-original="#fffad2" class=""></path><path fill="#feedb2" d="M5 8h56v4H5zM7 34h14v28H7z" data-original="#feedb2" class=""></path><path fill="#f8d270" d="M21 27H7a1 1 0 0 0-1 1v33h2v-5h5v5h2v-5h5v5h2V28a1 1 0 0 0-1-1zm-8 27H8v-5h5zm0-7H8v-5h5zm0-7H8v-5h5zm7 14h-5v-5h5zm0-7h-5v-5h5zm0-7h-5v-5h5zm0-7H8v-4h12z" data-original="#f8d270"></path><path fill="#ff778b" d="M61 12H3a2 2 0 0 0-2 2v5c2.14 4 5.61 4 7.75 0 2.14 4 5.61 4 7.75 0 2.14 4 5.61 4 7.75 0 2.14 4 5.61 4 7.75 0 2.14 4 5.61 4 7.75 0 2.14 4 5.61 4 7.75 0 2.14 4 5.61 4 7.75 0 2.14 4 5.61 4 7.75 0v-5a2 2 0 0 0-2-2z" data-original="#ff778b"></path><path fill="#f04f6b" d="M3 15v6.372c1.939 1.318 4.2.535 5.75-2.372 2.14 4 5.61 4 7.75 0 2.14 4 5.61 4 7.75 0 2.14 4 5.61 4 7.75 0 2.14 4 5.61 4 7.75 0 2.14 4 5.61 4 7.75 0 2.14 4 5.61 4 7.75 0 2.14 4 5.61 4 7.75 0v-5H4a1 1 0 0 0-1 1z" data-original="#f04f6b"></path><path fill="#eef6f6" d="M44 24H20V2h24z" data-original="#eef6f6"></path><path fill="#fafcfc" d="M44 24H23V5h21z" data-original="#fafcfc"></path><path fill="#f8d270" d="M44 25H20a1 1 0 0 1-1-1V2a1 1 0 0 1 1-1h24a1 1 0 0 1 1 1v22a1 1 0 0 1-1 1zm-23-2h22V3H21z" data-original="#f8d270"></path><path fill="#88747c" d="M40 10v1h-3v9H27v-9h-3v-1a4 4 0 0 1 4-4h8a4 4 0 0 1 4 4z" data-original="#88747c"></path><path fill="#7b636b" d="M40 10a3.961 3.961 0 0 0-.36-1.64A3.961 3.961 0 0 0 38 8h-9a3 3 0 0 0-3 3h3v9h8v-9h3z" data-original="#7b636b"></path><path fill="#7b636b" d="M32 10a2 2 0 0 0 2-2V6h-4v2a2 2 0 0 0 2 2z" data-original="#7b636b"></path><path fill="#6d555c" d="M32 10a2 2 0 0 0 2-2h-4a2 2 0 0 0 2 2z" data-original="#6d555c"></path><path fill="#7b636b" d="M46.5 50a1 1 0 0 0-1 1v6h2v-6a1 1 0 0 0-1-1z" data-original="#7b636b"></path><path fill="#88747c" d="M44.5 32h4v2l1 4h-6l1-4z" data-original="#88747c"></path><path fill="#7b636b" d="M48.5 33h-2v5h3l-1-4z" data-original="#7b636b"></path><path fill="#88747c" d="M31.5 32h4v2l1 4h-6l1-4z" data-original="#88747c"></path><path fill="#7b636b" d="M33.5 33v5h3l-1-4v-1z" data-original="#7b636b"></path><path fill="#ff778b" d="m40 53 3.5-12-1.2-2.888a3 3 0 0 1 1.945-4.038L44.5 34v.5a2 2 0 0 0 2 2 2 2 0 0 0 2-2V34l.258.074a3 3 0 0 1 1.942 4.038L49.5 41 53 53z" data-original="#ff778b"></path><path fill="#f04f6b" d="M50.7 38.112a3 3 0 0 0-1.945-4.038L48.5 34v.5a2 2 0 0 1-3.864.712 2.985 2.985 0 0 0-.339 2.9L45.5 41 42 53h11l-3.5-12z" data-original="#f04f6b"></path><path fill="#6d555c" d="M49.5 58h-6a1 1 0 0 1 0-2h6a1 1 0 0 1 0 2z" data-original="#6d555c"></path><path fill="#7b636b" d="M33.5 46a1 1 0 0 0-1 1v10h2V47a1 1 0 0 0-1-1z" data-original="#7b636b"></path><path fill="#d8d2d4" d="M29.5 48v-7l-.767-3.578A2.83 2.83 0 0 1 31.5 34v.5a2 2 0 0 0 2 2 2 2 0 0 0 2-2V34a2.83 2.83 0 0 1 2.767 3.422L37.5 41v7z" data-original="#d8d2d4"></path><path fill="#c9c0c3" d="M38.267 37.422A2.83 2.83 0 0 0 35.5 34v.5a2 2 0 0 1-3.968.319 2.805 2.805 0 0 0-.8 2.6L31.5 41v7h6v-7z" data-original="#c9c0c3"></path><g fill="#6d555c"><path d="M36.5 58h-6a1 1 0 0 1 0-2h6a1 1 0 0 1 0 2zM63 63H1a1 1 0 0 1 0-2h62a1 1 0 0 1 0 2z" fill="#6d555c" data-original="#6d555c"></path></g></g></svg>